<?xml version="1.0" encoding="UTF-8"?>
<svg id="Camada_1" data-name="Camada 1" xmlns="http://www.w3.org/2000/svg" viewBox="0 0 600.17482 302.02131">
  <defs>
    <style>
      .cls-1 {
        fill: #4eb8a4;
      }

      .cls-2, .cls-3 {
        opacity: .94;
      }

      .cls-3, .cls-4 {
        fill: #2e2e2e;
      }
    </style>
  </defs>
  <g class="cls-2">
    <path class="cls-4" d="M118.24929,237.76683h-6.71868l-1.35969,3.35929h-4.26581l7.17185-17.78302h3.75929l7.01187,17.78302h-4.26581l-1.33301-3.35929ZM117.12953,234.62078l-2.18627-5.97214-2.21285,5.97214h4.39911Z"/>
    <path class="cls-4" d="M166.98801,233.87433c0,1.70633-.21334,3.81246-1.97302,5.6255-1.70633,1.75968-3.67925,2.02629-5.54556,2.02629-1.86621,0-3.83923-.2666-5.54556-2.02629-1.75959-1.81304-1.97293-3.91918-1.97293-5.6255v-10.53123h4.10583v10.42452c0,.77313.05336,2.07964.9332,2.98597.71986.77332,1.70633.9332,2.47945.9332.77322,0,1.75968-.15988,2.47955-.9332.87984-.90633.93311-2.21285.93311-2.98597v-10.42452h4.10593v10.53123Z"/>
    <path class="cls-4" d="M203.78244,226.80892v14.3172h-4.10583v-14.3172h-3.86582v-3.46582h11.83756v3.46582h-3.86591Z"/>
    <path class="cls-4" d="M251.69476,225.52927c1.67965,1.62629,2.77273,3.97253,2.77273,6.71859,0,2.37292-.85316,4.79902-2.77273,6.66542-1.65306,1.59961-3.89259,2.61285-6.87866,2.61285-3.33271,0-5.59892-1.3332-6.93192-2.61285-1.70633-1.5998-2.77283-3.99921-2.77283-6.61206,0-2.55949,1.14644-5.14566,2.74615-6.74526,1.19971-1.1998,3.41265-2.61285,6.9586-2.61285,2.77273,0,5.0923.85316,6.87866,2.58617ZM240.89683,228.24864c-.77313.74664-1.57302,2.05296-1.57302,4.02589,0,1.62629.5333,2.93281,1.62638,3.99921,1.14644,1.09309,2.42619,1.4664,3.81255,1.4664,1.81304,0,3.09269-.6666,3.94585-1.51976.69328-.66641,1.54644-1.91957,1.54644-3.97253,0-1.83953-.74654-3.19941-1.54644-3.99921-.87975-.85316-2.29279-1.51957-3.91918-1.51957-1.54635,0-2.93271.55988-3.89259,1.51957Z"/>
    <path class="cls-4" d="M323.337,223.3431c1.54644,0,3.25277.21324,4.66581,1.46621,1.51957,1.3332,1.733,3.09269,1.733,4.31917,0,2.23953-.85316,3.49269-1.51976,4.18578-1.41304,1.43972-3.27926,1.57312-4.53242,1.57312h-2.50613v6.23874h-4.10593v-17.78302h6.26542ZM321.17751,231.52809h1.4664c.55988,0,1.54625-.02668,2.21285-.6666.37313-.37332.66641-.98637.66641-1.75968,0-.74645-.2666-1.35969-.66641-1.733-.61324-.58656-1.49308-.66641-2.29289-.66641h-1.38637v4.8257Z"/>
    <path class="cls-4" d="M367.83639,237.76683h-6.71859l-1.35969,3.35929h-4.26581l7.17194-17.78302h3.7591l7.01206,17.78302h-4.26581l-1.3332-3.35929ZM366.71662,234.62078l-2.18617-5.97214-2.21285,5.97214h4.39902Z"/>
    <path class="cls-4" d="M408.33675,223.3431c2.26621,0,3.67925.74645,4.53242,1.54625.74664.71996,1.54644,1.99961,1.54644,3.97253,0,1.11976-.23992,2.50613-1.38637,3.62589-.61324.58656-1.49308,1.11976-2.47964,1.35988l5.46562,7.27847h-5.01226l-4.79902-7.01187v7.01187h-4.10593v-17.78302h6.23874ZM406.20394,231.42137h.93301c.74664,0,1.75968-.08004,2.45296-.77313.29328-.29328.66641-.85316.66641-1.733,0-1.01324-.47984-1.54644-.82648-1.81304-.66641-.50652-1.733-.55988-2.26621-.55988h-.95969v4.87905Z"/>
    <path class="cls-4" d="M450.62348,226.80892v14.3172h-4.10574v-14.3172h-3.86601v-3.46582h11.83775v3.46582h-3.86601Z"/>
    <path class="cls-4" d="M491.7369,227.68876c-1.33301-1.1998-2.47945-1.27965-2.98617-1.27965-.55988,0-1.25297.07985-1.73281.61324-.26679.2666-.45336.66641-.45336,1.11976,0,.42649.1334.74645.4.98637.42649.4,1.03973.55988,2.23953,1.01324l1.33301.50652c.77313.29328,1.733.69309,2.42628,1.35969,1.03973.98656,1.30633,2.26621,1.30633,3.30593,0,1.83972-.63992,3.43933-1.57293,4.39921-1.57312,1.65297-3.86601,1.81304-5.03913,1.81304-1.27965,0-2.39941-.18675-3.51918-.74664-.90652-.45317-1.94644-1.27965-2.61285-1.94625l2.13281-2.93281c.45336.45336,1.17312,1.0666,1.65316,1.35988.69309.42649,1.41304.63973,2.23953.63973.5332,0,1.27965-.10653,1.86621-.61305.34664-.29328.63992-.77332.63992-1.43972,0-.58656-.23992-.95988-.61324-1.27984-.47984-.4-1.57312-.7998-2.07964-.98637l-1.4664-.50671c-.82648-.29328-1.78617-.66641-2.47945-1.41304-.9332-.98637-1.06641-2.23953-1.06641-3.09269,0-1.57293.47984-2.90613,1.54625-3.99921,1.25316-1.27965,2.74624-1.62629,4.39921-1.62629,1.22648,0,3.19941.21324,5.27886,1.75968l-1.83953,2.98597Z"/>
  </g>
  <g>
    <path class="cls-3" d="M523.84627,93.96252c0,13.06808-8.11796,25.34618-19.99949,30.49536l-91.68357,40.00057h107.46759v34.65231h-113.40836c-19.80199,0-33.07074-13.06809-33.07074-33.46574,0-13.06809,8.11956-25.34619,20.00108-30.49378l91.68359-40.00058-96.01399-.00157v-34.6539l101.95475.00158c19.80199,0,33.06915,13.06808,33.06915,33.46574Z"/>
    <path class="cls-3" d="M178.78095,199.11146h36.53438l-33.93712-51.97673h-45.35357l29.11554,44.59222c3.00812,4.60712,8.13856,7.38451,13.64077,7.38451Z"/>
    <path class="cls-3" d="M167.52232,60.51203h-91.19378l.53525,138.59943h37.6243l-.53526-103.94552h50.40164c9.9368,0,16.80728,6.71233,17.02372,16.92683v35.04197h37.62965v-35.92875c0-32.0801-20.59513-50.69395-51.48553-50.69395Z"/>
    <path class="cls-3" d="M358.76396,60.50359v34.63882h-49.51807c-18.93405,0-31.17124,11.55859-33.02429,29.42838v24.34605c-4.01807-5.06352-10.93486-7.81554-20.23661-7.81554h-11.39331c-2.18339,0-4.25659.14647-6.20146.47681-.01836-6.40303-.03673-10.5127-.03673-11.17316,0-41.99592,26.52967-69.90137,66.72763-69.90137h53.68284Z"/>
    <path class="cls-3" d="M278.3573,164.45771h80.40666v34.65375h-66.71697c-7.55555,0-13.68969-6.13414-13.68969-13.68969v-20.96406h0Z"/>
    <path class="cls-1" d="M251.1626,184.31686l11.79046-5.64992.02415-.01155.02384-.01223c6.84465-3.50337,9.89698-8.00112,9.89698-14.58365,0-10.89442-7.39824-17.14268-20.29773-17.14268h-10.08802c-10.54081,0-17.9924,4.21516-20.98207,11.86891l-.71822,1.83875,15.32272,6.61848.79049-1.92762c.76647-1.86902,2.85511-2.9848,5.58708-2.9848h10.08802c3.99317,0,3.99317,1.35556,3.99317,1.93442,0,1.09188-.23292,1.90902-3.43802,3.98955l-30.66647,15.61848v15.23846h50.40906v-14.7946h-21.73543Z"/>
  </g>
</svg>