<svg xmlns="http://www.w3.org/2000/svg" viewBox="0 0 512 512">
  <rect width="512" height="512" rx="72" fill="#0A0A0A"/>
  <g transform="translate(10, 150) scale(0.82)">
    <!-- Z -->
    <path fill="#fff" fill-opacity=".94" d="M523.84627,93.96252c0,13.06808-8.11796,25.34618-19.99949,30.49536l-91.68357,40.00057h107.46759v34.65231h-113.40836c-19.80199,0-33.07074-13.06809-33.07074-33.46574,0-13.06809,8.11956-25.34619,20.00108-30.49378l91.68359-40.00058-96.01399-.00157v-34.6539l101.95475.00158c19.80199,0,33.06915,13.06808,33.06915,33.46574Z"/>
    <!-- R triangle -->
    <path fill="#fff" fill-opacity=".94" d="M178.78095,199.11146h36.53438l-33.93712-51.97673h-45.35357l29.11554,44.59222c3.00812,4.60712,8.13856,7.38451,13.64077,7.38451Z"/>
    <!-- R body -->
    <path fill="#fff" fill-opacity=".94" d="M167.52232,60.51203h-91.19378l.53525,138.59943h37.6243l-.53526-103.94552h50.40164c9.9368,0,16.80728,6.71233,17.02372,16.92683v35.04197h37.62965v-35.92875c0-32.0801-20.59513-50.69395-51.48553-50.69395Z"/>
    <!-- C -->
    <path fill="#fff" fill-opacity=".94" d="M358.76396,60.50359v34.63882h-49.51807c-18.93405,0-31.17124,11.55859-33.02429,29.42838v24.34605c-4.01807-5.06352-10.93486-7.81554-20.23661-7.81554h-11.39331c-2.18339,0-4.25659.14647-6.20146.47681-.01836-6.40303-.03673-10.5127-.03673-11.17316,0-41.99592,26.52967-69.90137,66.72763-69.90137h53.68284Z"/>
    <path fill="#fff" fill-opacity=".94" d="M278.3573,164.45771h80.40666v34.65375h-66.71697c-7.55555,0-13.68969-6.13414-13.68969-13.68969v-20.96406h0Z"/>
    <!-- 2 (teal accent) -->
    <path fill="#4eb8a4" d="M251.1626,184.31686l11.79046-5.64992.02415-.01155.02384-.01223c6.84465-3.50337,9.89698-8.00112,9.89698-14.58365,0-10.89442-7.39824-17.14268-20.29773-17.14268h-10.08802c-10.54081,0-17.9924,4.21516-20.98207,11.86891l-.71822,1.83875,15.32272,6.61848.79049-1.92762c.76647-1.86902,2.85511-2.9848,5.58708-2.9848h10.08802c3.99317,0,3.99317,1.35556,3.99317,1.93442,0,1.09188-.23292,1.90902-3.43802,3.98955l-30.66647,15.61848v15.23846h50.40906v-14.7946h-21.73543Z"/>
  </g>
</svg>
